<svg width="81" height="81" viewBox="0 0 81 81" fill="none" xmlns="http://www.w3.org/2000/svg">
<rect x="30.8613" y="9.76074" width="41.4423" height="70.3694" fill="#FFC800"/>
<path d="M80.9297 10.1304C80.9297 4.60754 76.4525 0.130382 70.9297 0.130394L10.9297 0.130534C5.40685 0.130547 0.929703 4.60772 0.929722 10.1306L0.929931 70.1304C0.92995 75.6532 5.4071 80.1304 10.9299 80.1304H44.566V47.4031H33.657V36.494H44.566V30.6358C44.566 19.5449 49.9697 14.6758 59.1879 14.6758C63.6024 14.6758 65.937 15.0031 67.0424 15.1522V25.5849H60.7551C56.8424 25.5849 55.4751 27.6504 55.4751 31.8322V36.494H66.9442L65.3879 47.4031H55.4751V80.1304H70.9297C76.4525 80.1304 80.9297 75.6532 80.9297 70.1304V10.1304Z" fill="#151515"/>
</svg>
