<svg width="81" height="81" viewBox="0 0 81 81" fill="none" xmlns="http://www.w3.org/2000/svg">
<rect x="17.7383" y="12.6841" width="51.0353" height="48.9248" fill="#FFC800"/>
<path d="M10.1689 0.130859C4.6461 0.130859 0.168945 4.60801 0.168945 10.1309V70.1309C0.168945 75.6537 4.6461 80.1309 10.1689 80.1309H70.1689C75.6918 80.1309 80.1689 75.6537 80.1689 70.1309V10.1309C80.1689 4.60801 75.6918 0.130859 70.1689 0.130859H10.1689ZM61.9871 14.6763C63.9871 14.6763 65.6235 16.3127 65.6235 18.3127C65.6235 20.3127 63.9871 21.949 61.9871 21.949C59.9871 21.949 58.3508 20.3127 58.3508 18.3127C58.3508 16.3127 59.9871 14.6763 61.9871 14.6763ZM40.1689 20.1309C51.2053 20.1309 60.1689 29.0945 60.1689 40.1309C60.1689 51.1672 51.2053 60.1309 40.1689 60.1309C29.1326 60.1309 20.1689 51.1672 20.1689 40.1309C20.1689 29.0945 29.1326 20.1309 40.1689 20.1309ZM40.1689 23.7672C31.1508 23.7672 23.8053 31.1127 23.8053 40.1309C23.8053 49.149 31.1508 56.4945 40.1689 56.4945C49.1871 56.4945 56.5326 49.149 56.5326 40.1309C56.5326 31.1127 49.1871 23.7672 40.1689 23.7672Z" fill="#151515"/>
</svg>
