<svg width="81" height="81" viewBox="0 0 81 81" fill="none" xmlns="http://www.w3.org/2000/svg">
<rect x="10.8877" y="13.6436" width="58.1339" height="54.8724" fill="#FFC800"/>
<path d="M80.4424 10.1309C80.4424 4.60801 75.9652 0.130859 70.4424 0.130859H10.4424C4.91954 0.130859 0.442383 4.60801 0.442383 10.1309V70.1309C0.442383 75.6537 4.91954 80.1309 10.4424 80.1309H70.4424C75.9652 80.1309 80.4424 75.6537 80.4424 70.1309V10.1309ZM25.2043 30.607V66.7975H13.7757V30.607H25.2043ZM13.7757 20.0737C13.7757 17.4071 16.0614 15.369 19.49 15.369C22.9186 15.369 25.071 17.4071 25.2043 20.0737C25.2043 22.7404 23.071 24.8928 19.49 24.8928C16.0614 24.8928 13.7757 22.7404 13.7757 20.0737ZM67.109 66.7975H55.6805C55.6805 66.7975 55.6805 49.1594 55.6805 47.7499C55.6805 43.9404 53.7757 40.1309 49.0138 40.0547H48.8614C44.2519 40.0547 42.3471 43.9785 42.3471 47.7499C42.3471 49.4832 42.3471 66.7975 42.3471 66.7975H30.9186V30.607H42.3471V35.4832C42.3471 35.4832 46.0233 30.607 53.4138 30.607C60.9757 30.607 67.109 35.8071 67.109 46.3404V66.7975Z" fill="#151515"/>
</svg>
