<svg width="51" height="51" viewBox="0 0 51 51" fill="none" xmlns="http://www.w3.org/2000/svg">
<path d="M25.4424 50.6406C18.2454 50.6406 12.2479 48.315 7.44996 43.6639C2.77824 38.8835 0.442383 32.8112 0.442383 25.4468C0.442383 18.0825 2.77824 12.1393 7.44996 7.61737C12.2479 2.96621 18.2454 0.640625 25.4424 0.640625C32.6394 0.640625 38.5737 2.96621 43.2454 7.61737C48.0434 12.1393 50.4424 18.0825 50.4424 25.4468C50.4424 32.8112 48.0434 38.8835 43.2454 43.6639C38.5737 48.315 32.6394 50.6406 25.4424 50.6406V50.6406Z" fill="black"/>
<path fill-rule="evenodd" clip-rule="evenodd" d="M30.9248 13.5586H13.0684V31.8303L30.9248 13.5586ZM20.9753 39.9208H38.8314V21.6495L20.9753 39.9208V39.9208Z" fill="#FFD600"/>
</svg>
